<svg width="624" height="205" viewBox="0 0 624 205" fill="none" xmlns="http://www.w3.org/2000/svg">
<path d="M172.122 47.8138L117.671 86.8487V178.262L162.54 145.276C168.565 140.847 172.122 133.816 172.122 126.338V47.8138Z" fill="url(#paint0_linear)"/>
<path d="M28.7466 132.262V61.5246L117.671 86.7838V177.478L42.1434 151.126C34.1209 148.327 28.7466 140.759 28.7466 132.262Z" fill="url(#paint1_linear)" stroke="#BBD7D9" stroke-width="0.391736"/>
<path d="M117.671 86.7915L28.7466 61.5246L76.9694 30.1712C81.5631 27.1845 87.1978 26.2585 92.5058 27.618L172.122 48.0097L117.671 86.7915Z" fill="url(#paint2_linear)"/>
<path d="M69.8791 49.3807L45.0039 66.2254L72.4254 74.0601L95.5379 57.2155L69.8791 49.3807Z" fill="#FFEEA9"/>
<path d="M117.867 112.646L45.0039 89.3379L51.4675 117.347L70.8585 123.027L81.2395 105.791L92.9916 109.512L99.2593 129.883L117.867 135.367V112.646Z" fill="#004249"/>
<path d="M142.54 94.4341L117.867 112.687V135.367L127.654 129.448L142.54 94.4341Z" fill="#004249"/>
<path d="M100.101 142.417L71.8965 133.193L82.8024 153.563L100.101 142.417Z" fill="#004249"/>
<path d="M28.551 61.5246L75.4852 31.1749C80.9014 27.6726 87.5346 26.5928 93.782 28.1964L171.731 48.2055M28.551 61.5246L117.867 86.9874M28.551 61.5246V129.951C28.551 139.766 34.7499 148.51 44.0112 151.76L117.867 177.674M171.731 48.2055L117.867 86.9874M171.731 48.2055V126.57C171.731 133.945 168.211 140.877 162.257 145.229L117.867 177.674M117.867 86.9874V177.674" stroke="#004249" stroke-width="6.5942" stroke-linejoin="round"/>
<path d="M208.377 126.942V77.942H250.377V84.942H257.377V105.942H243.377V112.942H250.377V119.942H257.377V126.942H236.377V119.942H229.377V112.942H222.377V126.942H208.377ZM222.377 105.942H236.377V98.942H243.377V84.942H222.377V105.942ZM271.377 126.942V119.942H264.377V112.942H271.377V105.942H299.377V98.942H271.377V91.942H306.377V98.942H313.377V126.942H271.377ZM278.377 119.942H299.377V112.942H278.377V119.942ZM327.377 126.942V119.942H320.377V98.942H327.377V91.942H355.377V77.942H369.377V126.942H327.377ZM334.377 119.942H355.377V98.942H334.377V119.942ZM376.377 133.942V91.942H418.377V98.942H425.377V112.942H418.377V119.942H390.377V133.942H376.377ZM390.377 112.942H411.377V98.942H390.377V112.942ZM439.377 126.942V119.942H432.377V112.942H439.377V105.942H467.377V98.942H439.377V91.942H474.377V98.942H481.377V126.942H439.377ZM446.377 119.942H467.377V112.942H446.377V119.942ZM495.377 126.942V119.942H488.377V98.942H495.377V91.942H537.377V98.942H502.377V119.942H537.377V126.942H495.377ZM544.377 126.942V77.942H558.377V105.942H572.377V98.942H579.377V91.942H593.377V98.942H586.377V105.942H579.377V112.942H586.377V119.942H593.377V126.942H579.377V119.942H572.377V112.942H558.377V126.942H544.377Z" fill="#004249"/>
<defs>
<linearGradient id="paint0_linear" x1="144.897" y1="47.8138" x2="144.897" y2="178.262" gradientUnits="userSpaceOnUse">
<stop stop-color="#6CA7AB"/>
<stop offset="1" stop-color="#386568"/>
</linearGradient>
<linearGradient id="paint1_linear" x1="70.6623" y1="123.811" x2="55.9722" y2="86.0081" gradientUnits="userSpaceOnUse">
<stop stop-color="#BBD7D9"/>
<stop offset="1" stop-color="#D7F2F4"/>
</linearGradient>
<linearGradient id="paint2_linear" x1="164.483" y1="59.5659" x2="62.0441" y2="53.1022" gradientUnits="userSpaceOnUse">
<stop stop-color="#8BC9CD"/>
<stop offset="1" stop-color="#C2E5E8"/>
</linearGradient>
</defs>
</svg>
