<svg width="765" height="692" viewBox="0 0 765 692" fill="none" xmlns="http://www.w3.org/2000/svg">
<path d="M562.359 139.124L425.496 237.238V467.005L538.274 384.094C553.417 372.962 562.359 355.289 562.359 336.495V139.124Z" fill="url(#paint0_linear)"/>
<path d="M201.985 351.385V173.586L425.495 237.075V465.036L235.658 398.798C215.493 391.762 201.985 372.742 201.985 351.385Z" fill="url(#paint1_linear)" stroke="#BBD7D9" stroke-width="0.984628"/>
<path d="M425.495 237.094L201.985 173.586L323.193 94.7792C334.739 87.2721 348.902 84.9446 362.243 88.3617L562.358 139.616L425.495 237.094Z" fill="url(#paint2_linear)"/>
<path d="M305.371 143.062L242.847 185.401L311.771 205.094L369.864 162.755L305.371 143.062Z" fill="#FFEEA9"/>
<path d="M425.988 302.08L242.847 243.495L259.093 313.895L307.832 328.173L333.925 284.849L363.464 294.203L379.218 345.404L425.988 359.188V302.08Z" fill="#004249"/>
<path d="M488.004 256.304L425.987 302.183V359.188L450.588 344.312L488.004 256.304Z" fill="#004249"/>
<path d="M381.335 376.909L310.442 353.724L337.854 404.924L381.335 376.909Z" fill="#004249"/>
<path d="M201.492 173.586L319.462 97.3019C333.075 88.4988 349.748 85.7848 365.45 89.8156L561.374 140.108M201.492 173.586L425.988 237.587M201.492 173.586V345.576C201.492 370.246 217.073 392.225 240.352 400.393L425.988 465.528M561.374 140.108L425.988 237.587M561.374 140.108V337.077C561.374 355.615 552.527 373.039 537.561 383.978L425.988 465.528M425.988 237.587V465.528" stroke="#004249" stroke-width="16.5745" stroke-linejoin="round"/>
<path d="M80 615V538H146V549H157V582H135V593H146V604H157V615H124V604H113V593H102V615H80ZM102 582H124V571H135V549H102V582ZM179 615V604H168V593H179V582H223V571H179V560H234V571H245V615H179ZM190 604H223V593H190V604ZM267 615V604H256V571H267V560H311V538H333V615H267ZM278 604H311V571H278V604ZM344 626V560H410V571H421V593H410V604H366V626H344ZM366 593H399V571H366V593ZM443 615V604H432V593H443V582H487V571H443V560H498V571H509V615H443ZM454 604H487V593H454V604ZM531 615V604H520V571H531V560H597V571H542V604H597V615H531ZM608 615V538H630V582H652V571H663V560H685V571H674V582H663V593H674V604H685V615H663V604H652V593H630V615H608Z" fill="#004249"/>
<defs>
<linearGradient id="paint0_linear" x1="493.927" y1="139.124" x2="493.927" y2="467.005" gradientUnits="userSpaceOnUse">
<stop stop-color="#6CA7AB"/>
<stop offset="1" stop-color="#386568"/>
</linearGradient>
<linearGradient id="paint1_linear" x1="307.34" y1="330.142" x2="270.416" y2="235.125" gradientUnits="userSpaceOnUse">
<stop stop-color="#BBD7D9"/>
<stop offset="1" stop-color="#D7F2F4"/>
</linearGradient>
<linearGradient id="paint2_linear" x1="543.158" y1="168.663" x2="285.678" y2="152.416" gradientUnits="userSpaceOnUse">
<stop stop-color="#8BC9CD"/>
<stop offset="1" stop-color="#C2E5E8"/>
</linearGradient>
</defs>
</svg>
